<svg xmlns="http://www.w3.org/2000/svg" version="1.1" xmlns:xlink="http://www.w3.org/1999/xlink" viewBox="0 0 13.231017323692244 5.974633046348494"><g transform="matrix(0.7887196158527018,0,0,0.7887196158527018,5.794363956336723,2.1649580157054276)"><rect width="14.831488187862305" height="14.831488187862305" x="-6.374633046348494" y="-6.373094093931153" fill="#ffffff"></rect><g transform="matrix(1,0,0,1,0,0)" clip-path="url(#SvgjsClipPath31409)"><g clip-path="url(#SvgjsClipPath314042b96136b-740f-4baf-9d2f-41df59216ba5)"><path d=" M -3.6659541777517064 1.6069484062590913 C -3.67713458879816 1.6187415859013004 -3.6876459570466094 1.6311514832166507 -3.6974389358249056 1.644119838697934 C -3.977889071613497 1.6319142937180162 -4.290101364224832 1.6302499012207545 -4.502727505750009 1.6097223937545273 C -4.58970967278956 1.598015239477093 -4.676923446228635 1.629555137353814 -4.73629725286573 1.6941903129905578 L -4.744341816602494 1.7022348767273225 C -4.772081691556856 1.7299747516816835 -4.788170819030385 1.7577146266360448 -4.757102159081501 1.7825418147201977 L -4.031981827774501 2.220138342125245 C -4.078862216447371 2.3398359025533124 -4.09717053391725 2.442057341760134 -4.052231936491185 2.4874120373105137 C -4.048792440613702 2.4908762137971907 -4.044977809107339 2.493946526960848 -4.040858587759897 2.4965661960454533 C -4.038194410664442 2.5006533134862186 -4.035127731174489 2.5044634304282805 -4.031704429024957 2.5079395447767414 C -3.986627132224121 2.552878142202806 -3.8841282942677564 2.5345698247329276 -3.7644307338396885 2.487828135434829 L -3.3268342064346417 3.2128097673670575 C -3.302284417100032 3.243878427315942 -3.274544542145671 3.2280666985919555 -3.246527268441766 3.2000494248880513 L -3.2384827047050013 3.1920048611512875 C -3.173806948571821 3.13265808094044 -3.142259150715465 3.045422462565885 -3.1540147854689717 2.958435114035566 C -3.174542292935199 2.7456702731356155 -3.1760679860576886 2.4335966798990523 -3.1884122304123794 2.1531465441104616 C -3.172461802313622 2.140524901006227 -3.158869263585985 2.129290251649711 -3.1511020985987637 2.121661786037262 L -2.273967252541865 1.2443882406055904 L -1.1621530643710711 3.000044926467107 C -1.0948838676067458 3.0817388582076997 -1.0308047564621714 3.0496993026354127 -0.968944835313946 2.987839381487188 L -0.9511913153431553 2.9700858615163965 C -0.9100769302714875 2.9244808579540673 -0.901565174402629 2.8581554875473842 -0.9298316116282961 2.803646611790231 L -1.435945630170616 0.40636661823434195 L -0.5984788052984538 -0.43110020663782067 C -0.5124851929399341 -0.5170938189963394 -0.3095680076487817 -0.9424848014214676 -0.44590949304946736 -1.0784101886978372 C -0.44934920819205004 -1.0817836500497344 -0.452960162204632 -1.0849779555224033 -0.45672804428166813 -1.0879804455570918 C -0.4597416936650953 -1.0918242644038259 -0.4629838695021684 -1.0954832914199517 -0.46643700051569414 -1.0989376961640667 C -0.6023623877920636 -1.2348630834404348 -1.0277533702171913 -1.0319458981492835 -1.113746982575711 -0.9463683839150788 L -1.9512138074478735 -0.10890155904291698 L -4.347800304129902 -0.6143220807113754 C -4.402309179887056 -0.6425885179370424 -4.46863455029374 -0.6340767620681854 -4.514239553856069 -0.592962376996517 L -4.53199307382686 -0.5750701576509542 C -4.5938529949750855 -0.513348935877501 -4.6258925505473725 -0.4492698247329273 -4.544198618806779 -0.38200062796860024 L -2.789374129193895 0.7296748608274213 Z" fill="#225777" transform="matrix(1,0,0,1,0,0)" fill-rule="nonzero"></path></g></g><g><path d=" M 0.111 0.020999999999999686 L 0.111 1.0709999999999997 L 0.372 1.0709999999999997 L 0.372 0.020999999999999686 L 0.111 0.020999999999999686 M 0.486 1.0709999999999997 Q 0.6585 1.0709999999999997 0.7845 1.0064999999999997 Q 0.9105 0.9419999999999997 0.9795 0.8242499999999997 Q 1.0485 0.7064999999999997 1.0485 0.5459999999999997 Q 1.0485 0.3839999999999997 0.9795 0.2669999999999997 Q 0.9105 0.1499999999999997 0.7845 0.08549999999999969 Q 0.6585 0.020999999999999686 0.486 0.020999999999999686 L 0.279 0.020999999999999686 L 0.279 0.24599999999999966 L 0.47700000000000004 0.24599999999999966 Q 0.537 0.24599999999999966 0.59325 0.2609999999999997 Q 0.6495 0.2759999999999997 0.69225 0.31049999999999967 Q 0.735 0.34499999999999975 0.7605000000000001 0.4027499999999997 Q 0.786 0.4604999999999997 0.786 0.5459999999999997 Q 0.786 0.6314999999999997 0.7605000000000001 0.6892499999999997 Q 0.735 0.7469999999999997 0.69225 0.7814999999999998 Q 0.6495 0.8159999999999997 0.59325 0.8309999999999997 Q 0.537 0.8459999999999998 0.47700000000000004 0.8459999999999998 L 0.279 0.8459999999999998 L 0.279 1.0709999999999997 L 0.486 1.0709999999999997 M 1.5389567871093752 1.0859999999999996 Q 1.6709567871093753 1.0859999999999996 1.7632067871093753 1.0349999999999997 Q 1.8554567871093752 0.9839999999999998 1.9094567871093753 0.8819999999999997 L 1.7069567871093754 0.8324999999999997 Q 1.6814567871093753 0.8774999999999997 1.6387067871093752 0.8999999999999997 Q 1.5959567871093752 0.9224999999999998 1.535956787109375 0.9224999999999998 Q 1.4834567871093753 0.9224999999999998 1.4474567871093753 0.8992499999999997 Q 1.4114567871093753 0.8759999999999997 1.3934567871093753 0.8309999999999997 Q 1.3754567871093752 0.7859999999999997 1.3754567871093752 0.7229999999999996 Q 1.3769567871093753 0.6539999999999997 1.3942067871093753 0.6082499999999997 Q 1.4114567871093753 0.5624999999999997 1.4459567871093753 0.5399999999999997 Q 1.4804567871093752 0.5174999999999997 1.5314567871093752 0.5174999999999997 Q 1.5719567871093751 0.5174999999999997 1.6019567871093754 0.5354999999999998 Q 1.6319567871093752 0.5534999999999998 1.6484567871093754 0.5864999999999998 Q 1.6649567871093751 0.6194999999999997 1.6649567871093751 0.6644999999999996 Q 1.6649567871093751 0.6749999999999997 1.6597067871093754 0.6907499999999998 Q 1.6544567871093752 0.7064999999999997 1.6469567871093753 0.7169999999999997 L 1.7009567871093751 0.6479999999999997 L 1.2749567871093752 0.6479999999999997 L 1.2749567871093752 0.7739999999999998 L 1.9049567871093753 0.7739999999999998 Q 1.9079567871093752 0.7634999999999997 1.9079567871093752 0.7477499999999997 Q 1.9079567871093752 0.7319999999999998 1.9079567871093752 0.7154999999999998 Q 1.9079567871093752 0.6044999999999997 1.8644567871093751 0.5264999999999997 Q 1.8209567871093753 0.4484999999999997 1.7384567871093752 0.40724999999999967 Q 1.6559567871093752 0.36599999999999977 1.535956787109375 0.36599999999999977 Q 1.4159567871093752 0.36599999999999977 1.3282067871093752 0.40949999999999975 Q 1.2404567871093752 0.45299999999999974 1.1939567871093753 0.5339999999999997 Q 1.1474567871093753 0.6149999999999998 1.1474567871093753 0.7259999999999998 Q 1.1474567871093753 0.8354999999999997 1.1954567871093753 0.9164999999999998 Q 1.2434567871093751 0.9974999999999997 1.3312067871093753 1.0417499999999997 Q 1.4189567871093751 1.0859999999999996 1.5389567871093752 1.0859999999999996 M 2.0849538574218753 0.8204999999999998 L 1.9904538574218753 0.9704999999999997 Q 2.0369538574218753 1.0064999999999997 2.090953857421875 1.0357499999999997 Q 2.1449538574218754 1.0649999999999997 2.208703857421875 1.0822499999999997 Q 2.2724538574218753 1.0994999999999997 2.3459538574218755 1.0994999999999997 Q 2.4704538574218753 1.0994999999999997 2.538703857421875 1.0432499999999998 Q 2.606953857421875 0.9869999999999998 2.606953857421875 0.8759999999999997 Q 2.606953857421875 0.8114999999999997 2.5792038574218754 0.7724999999999997 Q 2.5514538574218752 0.7334999999999997 2.5057038574218753 0.7079999999999997 Q 2.4599538574218753 0.6824999999999997 2.405953857421875 0.6629999999999997 Q 2.3549538574218754 0.6434999999999997 2.3197038574218753 0.6307499999999997 Q 2.2844538574218753 0.6179999999999997 2.265703857421875 0.6029999999999998 Q 2.2469538574218753 0.5879999999999997 2.2469538574218753 0.5654999999999997 Q 2.2469538574218753 0.5459999999999997 2.2627038574218754 0.5339999999999997 Q 2.278453857421875 0.5219999999999997 2.3099538574218754 0.5219999999999997 Q 2.3564538574218754 0.5219999999999997 2.4119538574218753 0.5482499999999997 Q 2.467453857421875 0.5744999999999998 2.5109538574218755 0.6149999999999998 L 2.591953857421875 0.46799999999999975 Q 2.5514538574218752 0.4379999999999997 2.5057038574218753 0.41549999999999976 Q 2.4599538574218753 0.3929999999999997 2.408203857421875 0.3794999999999997 Q 2.3564538574218754 0.36599999999999977 2.2964538574218754 0.36599999999999977 Q 2.221453857421875 0.36599999999999977 2.163703857421875 0.38849999999999973 Q 2.1059538574218752 0.4109999999999997 2.0722038574218753 0.4544999999999997 Q 2.0384538574218753 0.49799999999999967 2.0384538574218753 0.5609999999999997 Q 2.0384538574218753 0.6269999999999998 2.066953857421875 0.6689999999999997 Q 2.0954538574218753 0.7109999999999997 2.139703857421875 0.7357499999999997 Q 2.183953857421875 0.7604999999999997 2.233453857421875 0.7784999999999997 Q 2.288953857421875 0.7949999999999997 2.3212038574218754 0.8099999999999997 Q 2.3534538574218753 0.8249999999999997 2.3669538574218754 0.8407499999999997 Q 2.380453857421875 0.8564999999999997 2.380453857421875 0.8789999999999998 Q 2.380453857421875 0.9029999999999997 2.3639538574218752 0.9179999999999997 Q 2.347453857421875 0.9329999999999997 2.312953857421875 0.9329999999999997 Q 2.288953857421875 0.9329999999999997 2.255953857421875 0.9232499999999997 Q 2.2229538574218752 0.9134999999999998 2.1802038574218754 0.8887499999999997 Q 2.137453857421875 0.8639999999999997 2.0849538574218753 0.8204999999999998 M 2.6504443359375003 0.3809999999999997 L 2.6504443359375003 0.5684999999999997 L 3.1124443359375005 0.5684999999999997 L 3.1124443359375005 0.3809999999999997 L 2.6504443359375003 0.3809999999999997 M 2.7719443359375004 0.14099999999999968 L 2.7719443359375004 1.0709999999999997 L 2.9894443359375007 1.0709999999999997 L 2.9894443359375007 0.14099999999999968 L 2.7719443359375004 0.14099999999999968 M 3.1949340820312506 0.12149999999999972 Q 3.1949340820312506 0.17549999999999966 3.2339340820312503 0.20999999999999974 Q 3.2729340820312505 0.24449999999999972 3.3269340820312503 0.24449999999999972 Q 3.3824340820312506 0.24449999999999972 3.4206840820312503 0.20999999999999974 Q 3.4589340820312504 0.17549999999999966 3.4589340820312504 0.12149999999999972 Q 3.4589340820312504 0.06749999999999967 3.4206840820312503 0.033749999999999725 Q 3.3824340820312506 -2.220446049250313e-16 3.3269340820312503 -2.220446049250313e-16 Q 3.2729340820312505 -2.220446049250313e-16 3.2339340820312503 0.033749999999999725 Q 3.1949340820312506 0.06749999999999967 3.1949340820312506 0.12149999999999972 M 3.2174340820312506 0.3809999999999997 L 3.2174340820312506 1.0709999999999997 L 3.4364340820312504 1.0709999999999997 L 3.4364340820312504 0.3809999999999997 L 3.2174340820312506 0.3809999999999997 M 4.070935546875001 0.6509999999999998 L 4.070935546875001 1.0709999999999997 L 4.306435546875001 1.0709999999999997 L 4.306435546875001 0.6269999999999998 Q 4.306435546875001 0.5024999999999997 4.247935546875 0.43349999999999966 Q 4.189435546875 0.3644999999999997 4.060435546875 0.3644999999999997 Q 3.9839355468750006 0.3644999999999997 3.9321855468750004 0.3959999999999997 Q 3.8804355468750007 0.42749999999999977 3.8504355468750004 0.4844999999999997 L 3.8504355468750004 0.3809999999999997 L 3.6224355468750002 0.3809999999999997 L 3.6224355468750002 1.0709999999999997 L 3.8504355468750004 1.0709999999999997 L 3.8504355468750004 0.6509999999999998 Q 3.8504355468750004 0.6104999999999997 3.8654355468750006 0.5819999999999997 Q 3.8804355468750007 0.5534999999999998 3.9074355468750004 0.5384999999999998 Q 3.9344355468750005 0.5234999999999997 3.9704355468750006 0.5234999999999997 Q 4.024435546875001 0.5234999999999997 4.047685546875001 0.5564999999999998 Q 4.070935546875001 0.5894999999999997 4.070935546875001 0.6509999999999998 M 4.444453857421875 0.7259999999999998 Q 4.444453857421875 0.8339999999999997 4.495453857421875 0.9149999999999997 Q 4.546453857421875 0.9959999999999998 4.636453857421875 1.0409999999999997 Q 4.726453857421875 1.0859999999999996 4.838953857421875 1.0859999999999996 Q 4.951453857421875 1.0859999999999996 5.0407038574218745 1.0409999999999997 Q 5.129953857421875 0.9959999999999998 5.181703857421875 0.9149999999999997 Q 5.233453857421875 0.8339999999999997 5.233453857421875 0.7259999999999998 Q 5.233453857421875 0.6164999999999997 5.181703857421875 0.5354999999999998 Q 5.129953857421875 0.4544999999999997 5.0407038574218745 0.40949999999999975 Q 4.951453857421875 0.3644999999999997 4.838953857421875 0.3644999999999997 Q 4.726453857421875 0.3644999999999997 4.636453857421875 0.40949999999999975 Q 4.546453857421875 0.4544999999999997 4.495453857421875 0.5354999999999998 Q 4.444453857421875 0.6164999999999997 4.444453857421875 0.7259999999999998 M 4.676953857421875 0.7259999999999998 Q 4.676953857421875 0.6719999999999997 4.699453857421875 0.6329999999999998 Q 4.721953857421875 0.5939999999999996 4.757953857421875 0.5729999999999997 Q 4.793953857421875 0.5519999999999997 4.838953857421875 0.5519999999999997 Q 4.882453857421875 0.5519999999999997 4.919203857421875 0.5729999999999997 Q 4.955953857421875 0.5939999999999996 4.977703857421875 0.6329999999999998 Q 4.999453857421875 0.6719999999999997 4.999453857421875 0.7259999999999998 Q 4.999453857421875 0.7799999999999998 4.977703857421875 0.8182499999999997 Q 4.955953857421875 0.8564999999999997 4.919203857421875 0.8774999999999997 Q 4.882453857421875 0.8984999999999997 4.838953857421875 0.8984999999999997 Q 4.793953857421875 0.8984999999999997 4.757953857421875 0.8774999999999997 Q 4.721953857421875 0.8564999999999997 4.699453857421875 0.8182499999999997 Q 4.676953857421875 0.7799999999999998 4.676953857421875 0.7259999999999998 M 5.252915771484375 0.3809999999999997 L 5.651915771484375 1.1519999999999997 L 6.052415771484375 0.3809999999999997 L 5.810915771484375 0.3809999999999997 L 5.651915771484375 0.7634999999999997 L 5.494415771484375 0.3809999999999997 L 5.252915771484375 0.3809999999999997 M 6.311882080078125 0.8549999999999998 Q 6.311882080078125 0.8294999999999997 6.323882080078125 0.8122499999999997 Q 6.335882080078125 0.7949999999999997 6.359882080078125 0.7859999999999997 Q 6.383882080078125 0.7769999999999997 6.424382080078125 0.7769999999999997 Q 6.476882080078125 0.7769999999999997 6.524132080078125 0.7912499999999998 Q 6.571382080078125 0.8054999999999997 6.607382080078125 0.8324999999999997 L 6.607382080078125 0.7319999999999998 Q 6.589382080078125 0.7124999999999997 6.553382080078125 0.6944999999999997 Q 6.517382080078125 0.6764999999999997 6.467132080078125 0.6644999999999996 Q 6.416882080078125 0.6524999999999997 6.353882080078125 0.6524999999999997 Q 6.224882080078125 0.6524999999999997 6.154382080078125 0.7102499999999997 Q 6.083882080078125 0.7679999999999998 6.083882080078125 0.8669999999999998 Q 6.083882080078125 0.9374999999999998 6.117632080078125 0.9869999999999998 Q 6.151382080078125 1.0364999999999998 6.207632080078125 1.0612499999999998 Q 6.263882080078125 1.0859999999999996 6.329882080078125 1.0859999999999996 Q 6.395882080078125 1.0859999999999996 6.452882080078125 1.0627499999999996 Q 6.509882080078125 1.0394999999999996 6.545882080078125 0.9937499999999997 Q 6.581882080078125 0.9479999999999997 6.581882080078125 0.8819999999999997 L 6.557882080078125 0.7919999999999997 Q 6.557882080078125 0.8399999999999997 6.536882080078125 0.8729999999999998 Q 6.515882080078125 0.9059999999999997 6.482882080078125 0.9224999999999998 Q 6.449882080078125 0.9389999999999997 6.4108820800781245 0.9389999999999997 Q 6.383882080078125 0.9389999999999997 6.361382080078125 0.9292499999999997 Q 6.338882080078125 0.9194999999999998 6.325382080078125 0.9007499999999997 Q 6.311882080078125 0.8819999999999997 6.311882080078125 0.8549999999999998 M 6.211382080078125 0.5924999999999997 Q 6.226382080078125 0.5834999999999997 6.259382080078125 0.5692499999999997 Q 6.292382080078125 0.5549999999999997 6.336632080078125 0.5444999999999998 Q 6.380882080078125 0.5339999999999997 6.427382080078125 0.5339999999999997 Q 6.458882080078125 0.5339999999999997 6.483632080078125 0.5399999999999997 Q 6.508382080078125 0.5459999999999997 6.524882080078125 0.5594999999999997 Q 6.541382080078125 0.5729999999999997 6.549632080078125 0.5917499999999998 Q 6.557882080078125 0.6104999999999997 6.557882080078125 0.6359999999999997 L 6.557882080078125 1.0709999999999997 L 6.775382080078125 1.0709999999999997 L 6.775382080078125 0.5849999999999997 Q 6.775382080078125 0.5129999999999997 6.733382080078125 0.4634999999999997 Q 6.6913820800781245 0.4139999999999997 6.619382080078125 0.3877499999999997 Q 6.547382080078125 0.3614999999999997 6.455882080078125 0.3614999999999997 Q 6.358382080078125 0.3614999999999997 6.275882080078125 0.3869999999999997 Q 6.193382080078125 0.41249999999999976 6.134882080078125 0.4409999999999997 L 6.211382080078125 0.5924999999999997" fill="#173054" fill-rule="nonzero"></path></g><g><path d=" M 0.291 1.5741749999999992 Q 0.32775 1.5887999999999993 0.36225 1.6195499999999994 L 0.32325 1.6630499999999993 Q 0.294 1.6397999999999993 0.26587500000000003 1.6289249999999993 Q 0.23775000000000002 1.6180499999999993 0.20550000000000002 1.6180499999999993 Q 0.165 1.6180499999999993 0.13875 1.6367999999999991 Q 0.1125 1.6555499999999992 0.1125 1.6915499999999992 Q 0.1125 1.7140499999999992 0.1215 1.7294249999999993 Q 0.1305 1.7447999999999992 0.154875 1.7575499999999993 Q 0.17925 1.7702999999999993 0.22575 1.7845499999999992 Q 0.2745 1.7995499999999993 0.30675 1.8167999999999993 Q 0.339 1.8340499999999993 0.358875 1.8644249999999993 Q 0.37875000000000003 1.8947999999999992 0.37875000000000003 1.9412999999999991 Q 0.37875000000000003 1.9862999999999993 0.356625 2.0207999999999995 Q 0.3345 2.0552999999999995 0.292875 2.0747999999999993 Q 0.25125000000000003 2.094299999999999 0.19425 2.094299999999999 Q 0.08700000000000001 2.094299999999999 0.01875 2.0275499999999993 L 0.05775 1.9840499999999992 Q 0.08925 2.009549999999999 0.1215 2.022674999999999 Q 0.15375 2.035799999999999 0.1935 2.035799999999999 Q 0.2415 2.035799999999999 0.273 2.012174999999999 Q 0.3045 1.9885499999999992 0.3045 1.9435499999999992 Q 0.3045 1.9180499999999991 0.29475 1.9011749999999992 Q 0.28500000000000003 1.8842999999999992 0.261375 1.8707999999999994 Q 0.23775000000000002 1.8572999999999993 0.19275 1.8437999999999992 Q 0.11325 1.8197999999999992 0.0765 1.7860499999999992 Q 0.03975 1.7522999999999993 0.03975 1.6945499999999993 Q 0.03975 1.6555499999999992 0.060375 1.6247999999999991 Q 0.081 1.5940499999999993 0.11812500000000001 1.576799999999999 Q 0.15525 1.5595499999999993 0.2025 1.5595499999999993 Q 0.25425000000000003 1.5595499999999993 0.291 1.5741749999999992 M 0.5501121826171874 1.6900499999999994 L 0.5501121826171874 2.0852999999999993 L 0.48111218261718747 2.0852999999999993 L 0.48111218261718747 1.6900499999999994 L 0.5501121826171874 1.6900499999999994 M 0.5501121826171874 1.5137999999999994 Q 0.5636121826171874 1.5272999999999992 0.5636121826171874 1.5475499999999993 Q 0.5636121826171874 1.5677999999999992 0.5501121826171874 1.5809249999999992 Q 0.5366121826171875 1.5940499999999993 0.5148621826171874 1.5940499999999993 Q 0.49386218261718745 1.5940499999999993 0.48036218261718744 1.5809249999999992 Q 0.4668621826171874 1.5677999999999992 0.4668621826171874 1.5475499999999993 Q 0.4668621826171874 1.5272999999999992 0.48036218261718744 1.5137999999999994 Q 0.49386218261718745 1.5002999999999993 0.5148621826171874 1.5002999999999993 Q 0.5366121826171875 1.5002999999999993 0.5501121826171874 1.5137999999999994 M 0.9640989990234374 1.7132999999999994 Q 0.9944739990234374 1.7455499999999993 0.9944739990234374 1.8017999999999992 L 0.9944739990234374 2.0852999999999993 L 0.9254739990234373 2.0852999999999993 L 0.9254739990234373 1.8115499999999993 Q 0.9254739990234373 1.7695499999999993 0.9097239990234374 1.7522999999999993 Q 0.8939739990234374 1.7350499999999993 0.8632239990234374 1.7350499999999993 Q 0.8317239990234373 1.7350499999999993 0.8077239990234374 1.7530499999999993 Q 0.7837239990234374 1.7710499999999993 0.7627239990234373 1.8047999999999993 L 0.7627239990234373 2.0852999999999993 L 0.6937239990234374 2.0852999999999993 L 0.6937239990234374 1.6900499999999994 L 0.7529739990234374 1.6900499999999994 L 0.7589739990234374 1.7485499999999994 Q 0.7799739990234373 1.7170499999999993 0.8110989990234374 1.6990499999999993 Q 0.8422239990234374 1.6810499999999993 0.8797239990234373 1.6810499999999993 Q 0.9337239990234374 1.6810499999999993 0.9640989990234374 1.7132999999999994 M 1.3428479003906246 1.6911749999999992 Q 1.3720979003906246 1.7012999999999994 1.3990979003906248 1.7237999999999993 L 1.3660979003906246 1.7672999999999992 Q 1.3450979003906247 1.7522999999999993 1.3252229003906246 1.7451749999999993 Q 1.3053479003906248 1.7380499999999992 1.2813479003906247 1.7380499999999992 Q 1.2333479003906247 1.7380499999999992 1.2067229003906248 1.7762999999999993 Q 1.1800979003906247 1.8145499999999992 1.1800979003906247 1.8895499999999992 Q 1.1800979003906247 1.9645499999999994 1.2063479003906248 2.000174999999999 Q 1.2325979003906247 2.035799999999999 1.2813479003906247 2.035799999999999 Q 1.3045979003906247 2.035799999999999 1.3240979003906248 2.0286749999999993 Q 1.3435979003906247 2.021549999999999 1.3675979003906247 2.0057999999999994 L 1.3990979003906248 2.0507999999999993 Q 1.3450979003906247 2.094299999999999 1.2783479003906246 2.094299999999999 Q 1.1980979003906247 2.094299999999999 1.1519729003906247 2.0402999999999993 Q 1.1058479003906247 1.9862999999999993 1.1058479003906247 1.8910499999999992 Q 1.1058479003906247 1.8280499999999993 1.1268479003906247 1.7807999999999993 Q 1.1478479003906248 1.7335499999999993 1.1864729003906247 1.7072999999999992 Q 1.2250979003906246 1.6810499999999993 1.2783479003906246 1.6810499999999993 Q 1.3135979003906246 1.6810499999999993 1.3428479003906246 1.6911749999999992 M 1.7759787597656247 1.9112999999999993 L 1.5239787597656247 1.9112999999999993 Q 1.5284787597656246 1.9765499999999994 1.5569787597656246 2.0072999999999994 Q 1.5854787597656248 2.0380499999999993 1.6304787597656247 2.0380499999999993 Q 1.6589787597656247 2.0380499999999993 1.6829787597656247 2.0297999999999994 Q 1.7069787597656247 2.021549999999999 1.7332287597656246 2.0035499999999993 L 1.7632287597656247 2.044799999999999 Q 1.7002287597656247 2.094299999999999 1.6252287597656248 2.094299999999999 Q 1.5427287597656247 2.094299999999999 1.4966037597656248 2.0402999999999993 Q 1.4504787597656248 1.9862999999999993 1.4504787597656248 1.8917999999999993 Q 1.4504787597656248 1.8302999999999994 1.4703537597656247 1.7826749999999993 Q 1.4902287597656247 1.7350499999999993 1.5273537597656248 1.7080499999999992 Q 1.5644787597656247 1.6810499999999993 1.6147287597656248 1.6810499999999993 Q 1.6934787597656247 1.6810499999999993 1.7354787597656247 1.7327999999999992 Q 1.7774787597656247 1.7845499999999992 1.7774787597656247 1.8760499999999993 Q 1.7774787597656247 1.8932999999999993 1.7759787597656247 1.9112999999999993 M 1.7092287597656246 1.8557999999999992 Q 1.7092287597656246 1.7972999999999992 1.6859787597656246 1.7665499999999992 Q 1.6627287597656246 1.7357999999999993 1.6162287597656246 1.7357999999999993 Q 1.5314787597656248 1.7357999999999993 1.5239787597656247 1.8602999999999992 L 1.7092287597656246 1.8602999999999992 L 1.7092287597656246 1.8557999999999992 M 2.259726928710937 1.5835499999999993 L 2.259726928710937 2.0852999999999993 L 2.190726928710937 2.0852999999999993 L 2.190726928710937 1.6570499999999992 L 2.0737269287109372 1.7282999999999993 L 2.0437269287109374 1.6795499999999992 L 2.1989769287109375 1.5835499999999993 L 2.259726928710937 1.5835499999999993 M 2.6583394775390623 1.6281749999999993 Q 2.6995894775390625 1.6802999999999992 2.6995894775390625 1.7710499999999993 Q 2.6995894775390625 1.8737999999999992 2.6718394775390624 1.9364249999999992 Q 2.644089477539062 1.9990499999999993 2.5870894775390623 2.036174999999999 Q 2.5300894775390623 2.0732999999999993 2.432589477539062 2.1017999999999994 L 2.4168394775390625 2.0500499999999993 Q 2.5173394775390623 2.021549999999999 2.5709644775390625 1.9727999999999992 Q 2.6245894775390624 1.9240499999999994 2.6283394775390625 1.8430499999999992 Q 2.6110894775390623 1.8700499999999993 2.5818394775390625 1.8865499999999993 Q 2.5525894775390623 1.9030499999999992 2.5158394775390622 1.9030499999999992 Q 2.4768394775390625 1.9030499999999992 2.4453394775390622 1.8831749999999992 Q 2.4138394775390624 1.8632999999999993 2.3954644775390626 1.8269249999999992 Q 2.3770894775390623 1.7905499999999992 2.3770894775390623 1.7417999999999991 Q 2.3770894775390623 1.6907999999999992 2.3988394775390622 1.6532999999999993 Q 2.420589477539062 1.6157999999999992 2.456964477539062 1.5959249999999994 Q 2.4933394775390623 1.5760499999999993 2.537589477539062 1.5760499999999993 Q 2.6170894775390625 1.5760499999999993 2.6583394775390623 1.6281749999999993 M 2.6298394775390626 1.7867999999999993 Q 2.631339477539062 1.7035499999999992 2.609214477539062 1.6671749999999992 Q 2.5870894775390623 1.6307999999999994 2.5390894775390622 1.6307999999999994 Q 2.4948394775390623 1.6307999999999994 2.4708394775390623 1.6600499999999991 Q 2.4468394775390623 1.6892999999999994 2.4468394775390623 1.7432999999999992 Q 2.4468394775390623 1.7957999999999994 2.4693394775390622 1.8224249999999993 Q 2.491839477539062 1.8490499999999992 2.5300894775390623 1.8490499999999992 Q 2.5893394775390624 1.8490499999999992 2.6298394775390626 1.7867999999999993 M 3.0532327880859373 1.6281749999999993 Q 3.0944827880859376 1.6802999999999992 3.0944827880859376 1.7710499999999993 Q 3.0944827880859376 1.8737999999999992 3.0667327880859374 1.9364249999999992 Q 3.0389827880859372 1.9990499999999993 2.9819827880859373 2.036174999999999 Q 2.9249827880859374 2.0732999999999993 2.8274827880859372 2.1017999999999994 L 2.8117327880859375 2.0500499999999993 Q 2.9122327880859373 2.021549999999999 2.9658577880859376 1.9727999999999992 Q 3.0194827880859374 1.9240499999999994 3.0232327880859375 1.8430499999999992 Q 3.0059827880859373 1.8700499999999993 2.9767327880859376 1.8865499999999993 Q 2.9474827880859373 1.9030499999999992 2.9107327880859373 1.9030499999999992 Q 2.8717327880859376 1.9030499999999992 2.8402327880859373 1.8831749999999992 Q 2.8087327880859374 1.8632999999999993 2.7903577880859376 1.8269249999999992 Q 2.7719827880859373 1.7905499999999992 2.7719827880859373 1.7417999999999991 Q 2.7719827880859373 1.6907999999999992 2.7937327880859373 1.6532999999999993 Q 2.815482788085937 1.6157999999999992 2.8518577880859373 1.5959249999999994 Q 2.8882327880859373 1.5760499999999993 2.932482788085937 1.5760499999999993 Q 3.0119827880859376 1.5760499999999993 3.0532327880859373 1.6281749999999993 M 3.0247327880859376 1.7867999999999993 Q 3.026232788085937 1.7035499999999992 3.0041077880859373 1.6671749999999992 Q 2.9819827880859373 1.6307999999999994 2.9339827880859373 1.6307999999999994 Q 2.8897327880859374 1.6307999999999994 2.8657327880859373 1.6600499999999991 Q 2.8417327880859373 1.6892999999999994 2.8417327880859373 1.7432999999999992 Q 2.8417327880859373 1.7957999999999994 2.8642327880859373 1.8224249999999993 Q 2.8867327880859373 1.8490499999999992 2.9249827880859374 1.8490499999999992 Q 2.9842327880859374 1.8490499999999992 3.0247327880859376 1.7867999999999993 M 3.3667716064453126 1.5940499999999993 Q 3.4008966064453126 1.6120499999999993 3.4196466064453124 1.6431749999999994 Q 3.4383966064453126 1.6742999999999992 3.4383966064453126 1.7132999999999994 Q 3.4383966064453126 1.7590499999999993 3.4177716064453123 1.8010499999999992 Q 3.3971466064453124 1.8430499999999992 3.3543966064453126 1.8917999999999993 Q 3.3116466064453123 1.9405499999999993 3.2246466064453125 2.0275499999999993 L 3.450396606445312 2.0275499999999993 L 3.4421466064453123 2.0852999999999993 L 3.1458966064453127 2.0852999999999993 L 3.1458966064453127 2.0305499999999994 Q 3.2463966064453125 1.9262999999999992 3.2883966064453123 1.8779249999999992 Q 3.3303966064453125 1.8295499999999993 3.3483966064453123 1.7935499999999993 Q 3.3663966064453126 1.7575499999999993 3.3663966064453126 1.7162999999999993 Q 3.3663966064453126 1.6772999999999993 3.3438966064453126 1.6551749999999992 Q 3.3213966064453126 1.6330499999999992 3.2838966064453126 1.6330499999999992 Q 3.2531466064453123 1.6330499999999992 3.2298966064453123 1.6457999999999993 Q 3.2066466064453123 1.6585499999999993 3.1803966064453126 1.6877999999999993 L 3.1353966064453123 1.6517999999999993 Q 3.1661466064453125 1.6135499999999992 3.2036466064453126 1.5947999999999993 Q 3.2411466064453123 1.5760499999999993 3.2876466064453123 1.5760499999999993 Q 3.3326466064453126 1.5760499999999993 3.3667716064453126 1.5940499999999993" fill="#225777" fill-rule="nonzero"></path></g></g><defs><clipPath id="SvgjsClipPath31409"><path d=" M -4.774162182178433 -1.1444310910892166 h 4.3741621821784324 v 4.3741621821784324 h -4.3741621821784324 Z"></path></clipPath><clipPath id="SvgjsClipPath314042b96136b-740f-4baf-9d2f-41df59216ba5"><path d=" M -4.774162182178433 -1.1444310910892166 L -0.40000000000000036 -1.1444310910892166 L -0.40000000000000036 3.229731091089216 L -4.774162182178433 3.229731091089216 Z"></path></clipPath></defs></svg>